<?xml version="1.0" encoding="UTF-8"?>
<svg version="1.1" viewBox="0 0 270.68 128.09" xmlns="http://www.w3.org/2000/svg">
<g transform="translate(-2 -92.471)">
<path d="m74.318 218.12c-1.1546-1.1546-1.0421-1.8603 1.1036-6.9191 0.55312-1.3041 1.5858-3.8646 2.2948-5.6899 0.70903-1.8254 1.4227-3.5228 1.586-3.7721 0.6684-1.0203 1.2446-4.2811 1.375-7.7819 0.12207-3.2756 0.16086-3.5126 0.77259-4.7199 0.35424-0.69913 0.96047-1.5236 1.3472-1.8322l0.7031-0.56101-0.0048-12.502c-0.0048-12.459-0.0062-12.5-0.42753-11.963-0.23251 0.29638-0.48216 0.73286-0.55478 0.96997-0.07262 0.2371-0.54747 1.4981-1.0552 2.8021s-0.98845 2.6741-1.0682 3.0445c-0.23487 1.0906-1.0539 1.6976-2.2906 1.6976-0.84437 0-1.1656-0.1101-1.6059-0.55046-0.88976-0.88976-0.90135-1.7856-0.0547-4.2262l0.74414-2.1451-0.76867-0.0218c-0.58352-0.0166-0.93094-0.19885-1.4424-0.75691-0.61794-0.67429-0.71195-0.98364-1.136-3.7382-0.25424-1.6517-0.52456-3.5156-0.60069-4.1419-0.07614-0.62636-0.18668-1.0906-0.24564-1.0316-0.41822 0.41822-0.68298 4.5475-0.68989 10.76l-0.0077 6.8652-0.73287 0.73286c-0.83017 0.83017-1.6689 0.95099-2.7436 0.39523-1.1224-0.58041-1.266-1.2952-1.2624-6.2836 3e-3 -4.2011-0.14474-7.8408-0.6545-16.119-0.3256-5.2877-0.70862-9.3607-0.87083-9.2604-0.28554 0.17647-2.7232 3.8928-3.444 5.2506-0.75462 1.4214-1.6326 2.1754-2.5349 2.1769-1.2129 2e-3 -2.4142-1.2097-2.4142-2.4352 0-1.3342 3.6707-6.811 6.6269-9.8876 1.6276-1.6938 2.2106-2.446 2.2106-2.8518 0-0.83697-1.0535-3.2897-2.1383-4.9784-0.5331-0.82987-1.4196-2.6728-1.97-4.0954-0.55039-1.4226-1.1629-2.9677-1.3612-3.4334-0.19826-0.46577-0.68898-2.1632-1.0905-3.7721-1.872-7.5013-1.9332-8.1809-0.83956-9.3224 0.81416-0.8498 1.7876-1.0878 4.0586-0.99231 1.9762 0.0831 4.2856 0.64323 7.3271 1.7771 0.82902 0.30907 2.4184 0.81015 3.532 1.1135 1.1136 0.30336 2.4722 0.74369 3.0192 0.9785s1.3975 0.50244 1.8899 0.59473l0.89535 0.1678 0.97644-2.1777c2.5794-5.7527 4.0475-9.7124 4.7631-12.847 0.51766-2.2676 1.896-3.1292 3.5982-2.2489 0.3622 0.1873 0.78888 0.66303 0.95826 1.0684 0.26526 0.63484 0.26242 0.93716-0.02157 2.3028-0.36136 1.7377-1.8171 6.3076-2.5128 7.888-0.24518 0.55701-0.61626 1.4492-0.82463 1.9827-0.20837 0.53348-0.52704 1.3095-0.70816 1.7244l-0.3293 0.75442 2.6329-0.0656c4.7955-0.11947 7.327 0.77633 10.34 3.659 0.95729 0.91579 2.0725 1.7914 2.4783 1.9459 1.0438 0.39728 1.4741 1.1069 1.8692 3.0826 0.18964 0.94842 0.76465 2.7914 1.2778 4.0954 0.51316 1.3041 0.99822 2.5894 1.0779 2.8562s0.34131 0.59032 0.58134 0.71879c0.57666 0.30862 1.422 2.2584 1.8047 4.1626 0.29859 1.4858 1.0989 7.5724 1.7175 13.063 0.98455 8.7376 1.1876 10.816 1.1865 12.146-1e-3 1.3911-0.0436 1.5189-0.73404 2.2094-0.40307 0.40308-0.88053 0.73287-1.061 0.73287-0.18526 0-0.43897 0.33576-0.58265 0.7711-0.5114 1.5496-2.4633 2.0857-3.6669 1.0072-0.85498-0.76614-0.98688-1.3893-1.4001-6.6146-0.1869-2.3636-0.57702-6.1851-0.86693-8.4921-0.2899-2.3071-0.5271-4.9729-0.5271-5.924v-1.7293l-1.1933 1.3186c-1.3118 1.4495-3.41 2.9416-5.3275 3.7883-0.68192 0.30111-2.4896 0.86465-4.017 1.2523l-2.7772 0.70481-0.13042 1.0851c-0.07173 0.59682-0.13126 2.5081-0.13229 4.2474l-0.0019 3.1622 0.61958 0.13608c0.87852 0.19296 1.4729 0.91838 1.7441 2.1287 0.12879 0.57467 0.73428 1.9811 1.3456 3.1254 2.7013 5.0568 4.1455 8.405 5.6863 13.183 1.2928 4.009 1.3293 4.5249 0.38334 5.4136-0.42379 0.39813-0.7849 0.51206-1.6231 0.51206-1.5587 0-2.1026-0.68793-3.1058-3.9282-1.2274-3.9643-1.394-4.4491-1.6868-4.9094-0.15081-0.2371-0.3796-0.72208-0.50844-1.0777-0.62642-1.7293-1.7633-4.2058-2.2792-4.9651l-0.57554-0.84702v28.064l0.76485 2.4538c1.5424 4.9484 3.2007 8.9599 5.8706 14.201 1.238 2.4303 2.4471 4.6948 2.687 5.0322 0.26644 0.37482 0.43606 0.95593 0.43606 1.494 0 0.74207-0.12707 0.99699-0.80807 1.6211-0.70872 0.6495-0.91213 0.72658-1.6545 0.62702-0.46552-0.0624-0.9941-0.23611-1.1746-0.38593-1.272-1.0557-5.9747-10.33-8.1056-15.985-0.39057-1.0366-0.7612-1.8853-0.82363-1.886-0.06243-6.7e-4 -0.34 1.0557-0.61684 2.3477-0.27683 1.292-0.74512 2.9167-1.0406 3.6104-0.29552 0.69372-1.0038 2.4253-1.5739 3.8479-1.978 4.9357-3.0502 7.5487-3.4494 8.4064-0.22072 0.47422-0.46574 1.1279-0.5445 1.4526-0.07876 0.32474-0.47582 0.88247-0.88234 1.2394-1.0459 0.91836-2.0343 0.8908-3.009-0.0838zm6.4673-60.89c0.58134-0.90242 1.4197-2.0288 1.8629-2.503l0.80596-0.8622 0.19326-8.6705-2.714-0.14399c-1.4927-0.0792-3.1888-0.20387-3.7691-0.27705l-1.0551-0.13307 0.14404 0.62468c0.40328 1.749 1.2767 6.881 1.757 10.324 0.29769 2.1339 0.59663 4.1224 0.66431 4.4188 0.11973 0.52428 0.13566 0.51617 0.58835-0.29918 0.25591-0.46093 0.94093-1.5764 1.5223-2.4788zm-9.6373-14.408c-0.05465-0.20972-0.10296-0.0903-0.10735 0.26533-0.0043 0.35566 0.04032 0.52725 0.09937 0.38131 0.05904-0.14593 0.06264-0.43692 8e-3 -0.64664zm17.633-2.9441c7.8128-1.6368 10.903-4.9529 10.967-11.771 0.03011-3.1721-0.46511-5.177-1.9186-7.7676-1.3221-2.3563-3.1479-4.2601-4.7771-4.9811-1.7752-0.7856-7.8281-0.8438-7.8281-0.0753 0 0.61879-0.99084 1.4444-2.0551 1.7125-1.0657 0.26841-1.0758 0.27925-2.3161 2.4968-0.68515 1.225-2.0506 3.4462-3.0344 4.936-0.98378 1.4898-2.5932 4.1152-3.5765 5.8342s-1.941 3.3001-2.1282 3.5136c-0.36936 0.4212-0.37777 1.4549-0.02266 2.787 0.2203 0.82635 1.176 1.9025 2.1552 2.4268 0.54378 0.29118 3.3453 1.0574 4.6191 1.2634 1.2869 0.20807 8.4196-0.0618 9.9152-0.37513zm0.01595-3.6852c-1.2402-0.44186-2.2858-1.5781-2.428-2.6386-0.1037-0.77313-0.03279-0.96424 0.62353-1.6804 0.63051-0.688 0.8751-0.80807 1.6462-0.80807 0.53607 0 1.0647 0.14394 1.2954 0.35272 0.26258 0.23763 0.78107 0.35272 1.5891 0.35272 1.3228 0 1.461-0.13452 1.461-1.4219 0-1.0811 1.1833-2.3287 2.2089-2.3287 2.0807 0 3.2003 2.5955 2.1292 4.9361-0.60914 1.3311-2.2957 3.0767-3.2209 3.3337-1.1359 0.31549-4.3089 0.25714-5.3044-0.0975zm-5.9801-5.0677c-1.0278-0.34224-2.5798-0.76876-3.4488-0.94783-1.2633-0.26031-1.6989-0.45795-2.1728-0.98588-0.85467-0.95205-0.8063-1.936 0.14619-2.9738 0.703-0.76598 0.79999-0.80329 1.9938-0.76693 0.72074 0.0219 2.3319 0.366 3.7852 0.8083 1.3917 0.42356 2.7351 0.7701 2.9854 0.7701 0.72034 0 1.9208 1.3404 1.9208 2.1446 0 1.4845-1.1998 2.6161-2.7413 2.5855-0.32982-6e-3 -1.4406-0.2919-2.4684-0.63413zm8.3352-6.2503c-1.067-0.21958-2.946-0.5488-4.1756-0.73159-2.5027-0.37205-3.1568-0.69261-3.6058-1.7671-0.40753-0.97535-0.20676-1.663 0.72416-2.4804 0.72733-0.63861 0.83422-0.66629 2.1866-0.56639 1.2522 0.0925 5.9742 0.82301 7.2916 1.128 0.69018 0.1598 1.9289 1.3103 2.0864 1.9378 0.17388 0.6928-0.34559 1.9243-0.98672 2.3392-0.82535 0.5341-1.4808 0.56024-3.5207 0.14042zm-21.229-2.8755c0.43214-1.363 2.3064-4.1875 3.8465-5.7967 0.53633-0.56039 0.9237-1.0703 0.86082-1.1332-0.06288-0.0629-1.2722-0.43817-2.6874-0.83397-1.4152-0.39581-2.7829-0.83191-3.0392-0.96913-0.25639-0.13721-1.3691-0.50058-2.4728-0.80749-3.2391-0.90073-2.9969-0.89576-2.8391-0.0583 0.70288 3.7306 2.7317 9.9344 4.2022 12.85l0.46187 0.91567 0.7367-1.7779c0.40519-0.97783 0.82386-2.0528 0.9304-2.3888zm58.267 83.284c-1.3883-0.59237-5.5054-8.0518-6.7871-12.297-0.23265-0.7706-0.54201-1.6777-0.68748-2.0158l-0.26448-0.61473-0.35942 0.72251c-1.3283 2.6701-2.2825 6.3706-2.5151 9.7541l-0.16153 2.3496-0.78785 0.722c-1.1036 1.0114-2.0702 0.99795-3.1113-0.0431l-0.76514-0.76515 0.1406-2.6298c0.22383-4.1863 1.3733-8.3533 3.4259-12.419 0.44419-0.87992 0.77781-1.6297 0.74137-1.6661-0.0364-0.0364-0.71448-0.15806-1.5067-0.27025-1.7818-0.25234-3.4749-1.0091-4.6668-2.0859-2.1653-1.9562-3.4099-4.8147-3.6926-8.4806-0.16173-2.0973-0.27024-2.578-0.73233-3.2448-0.29835-0.43053-0.54246-1.0854-0.54246-1.4552 0-0.77162 0.86571-1.9288 1.6724-2.2355 0.81722-0.31071 2.0119 0.12607 2.9375 1.074 0.78939 0.8084 0.84001 0.94729 1.1214 3.0763 0.16208 1.2263 0.3007 2.6662 0.30803 3.1996 0.024 1.745 1.3537 4.241 2.6464 4.9676 0.92442 0.51955 3.5778 0.89907 6.2949 0.9004 2.5208 2e-3 8.4656-1.5836 12.132-3.2343l0.92355-0.41579-1.8168-0.80954c-0.99924-0.44524-2.3035-1.2352-2.8983-1.7556-1.0513-0.91964-1.1226-0.94609-2.5555-0.94721-1.7759-1e-3 -5.6831-0.64772-8.4581-1.3992-1.9982-0.54108-5.3619-2.1432-6.7954-3.2366-1.4252-1.087-1.5424-2.7168-0.2829-3.9317 0.89481-0.86309 1.2251-0.97677 4.4704-1.5384 2.9296-0.50704 3.5289-0.66355 5.5332-1.4451 0.73154-0.28523 1.7189-0.5186 2.1941-0.5186h0.86402l0.35353-1.2161 0.35352-1.2161-0.84743-0.88554c-2.6699-2.79-3.7724-4.8736-3.7989-7.1794-0.0175-1.5285-4e-3 -1.565 0.84337-2.4343 1.0942-1.1212 2.5907-1.6017 4.3664-1.402 1.346 0.15143 6.1418 1.4095 7.9985 2.0982l1.1554 0.42857 1.539-0.44744c2.1605-0.62814 3.8229-0.76077 6.0862-0.48558 3.1623 0.3845 4.5183 0.91113 6.1591 2.392 2.6869 2.425 3.6277 4.685 3.6277 8.7144 0 2.698-0.31073 4.092-1.313 5.8902-1.6339 2.9316-3.7215 5.0042-6.3678 6.3221-0.81402 0.40538-1.5128 0.75368-1.5529 0.77399-0.26758 0.13567 1.0436 1.3932 1.8706 1.794 1.1805 0.57216 4.2955 2.5914 5.5416 3.5923 0.88309 0.70929 4.1467 2.0794 5.6048 2.3529 0.94058 0.17645 2.152 1.1723 2.3407 1.9241 0.18327 0.73021-0.35684 1.9305-1.0827 2.4061-0.85929 0.56303-2.0604 0.44637-4.7039-0.4569-2.2596-0.77206-3.6558-1.5132-5.9417-3.1539-1.4322-1.0279-3.987-2.568-4.2601-2.568-0.65225 0-0.88587 2.3144-0.46923 4.6486 0.36923 2.0686 2.5136 5.5283 5.219 8.4204 1.2189 1.3031 1.3426 1.5212 1.3426 2.3691 0 1.3613-0.81083 2.1292-2.2482 2.1292-1.4359 0-2.2003-0.65065-4.7711-4.0607-3.2622-4.3274-4.0943-6.1713-4.4171-9.7892l-0.13951-1.5637-1.2174 0.64004c-2.0138 1.0587-4.4879 1.9117-7.8995 2.7236-1.7783 0.42318-3.3533 0.80637-3.5 0.85153-0.19531 0.0601-0.15786 0.27186 0.13978 0.79044 0.22361 0.38957 0.62084 1.3873 0.88274 2.2172 0.26189 0.82985 0.85372 2.4881 1.3152 3.685 0.46145 1.1969 0.83899 2.2401 0.83899 2.3182 0 0.25383 3.0624 5.615 3.6409 6.374 0.77913 1.0222 0.78016 2.3757 3e-3 3.1534-0.61396 0.61398-1.9234 0.87402-2.7103 0.53827zm5.1164-35.476c0.59981-0.31017 0.91225-0.32684 2.289-0.12207 2.4211 0.36009 3.7605 0.28943 5.6072-0.29578 1.9797-0.62739 3.5232-1.8462 4.7332-3.7378 1.1216-1.7534 1.4202-2.7267 1.4339-4.6746 0.0164-2.3435-0.44131-3.6313-1.7403-4.8962-1.1563-1.1259-1.9195-1.3987-4.4695-1.5976-6.3701-0.49675-12.662 5.0944-12.36 10.983 0.0629 1.2243 0.24078 1.8856 0.85404 3.1742 0.42605 0.89529 1.0932 1.9906 1.4826 2.4341l0.70796 0.80633 0.38374-0.85711c0.2351-0.5251 0.65283-0.99626 1.0784-1.2163zm5.539-1.2884c-0.64958-0.3653-1.2421-1.341-1.2421-2.0453 0-0.24887 0.14005-0.72333 0.31122-1.0543l0.31123-0.60184-1.0118 0.16659c-0.55647 0.0916-1.3294 0.28061-1.7177 0.41997-1.6416 0.58917-3.1739-0.406-3.1739-2.0612 0-1.257 0.99705-2.3335 2.4938-2.6926 0.98148-0.23544 1.0246-0.27561 0.80717-0.75271-0.29793-0.65388-0.0665-1.8523 0.49587-2.5671 0.6539-0.8313 1.4835-1.18 3.1833-1.338l1.5168-0.14098 0.76301 0.76302c0.58491 0.58491 0.76303 0.9403 0.76303 1.5225 0 0.99207-0.84429 1.9986-1.9558 2.3316-0.46548 0.13946-0.84631 0.29012-0.84631 0.3348 0 0.0447 0.15799 0.32237 0.35109 0.61708 0.24481 0.37362 0.3153 0.80265 0.23287 1.4172l-0.1182 0.88138 0.62068-0.59466c0.41713-0.39964 0.69727-0.9635 0.85417-1.7193 0.31125-1.4993 1.0015-2.1523 2.275-2.1523 1.4483 0 2.095 0.75183 2.2108 2.5702 0.14189 2.2284-0.91119 3.9691-3.5334 5.8402-1.5875 1.1328-2.6486 1.3857-3.5909 0.85579zm-14.073 0.81074c-0.0877-0.20747-0.25946-0.78732-0.38161-1.2886-0.20368-0.83575-0.26835-0.90029-0.77963-0.77806-0.30663 0.0733-0.80001 0.25203-1.0964 0.39716s-1.0685 0.43708-1.7158 0.64877c-1.0262 0.33559-1.1156 0.40756-0.69844 0.5619 0.79234 0.2931 3.3348 0.79965 4.1078 0.81842 0.60925 0.0148 0.69839-0.042 0.56407-0.35963zm3.6268-14.378 0.80254-0.9601-1.4574-0.41944c-0.80159-0.23069-1.72-0.46336-2.0408-0.51705-0.53412-0.0894-0.56331-0.0593-0.34568 0.35568 0.31824 0.6069 1.9003 2.501 2.089 2.501 0.0825 0 0.51099-0.43205 0.95239-0.96011z" fill="currentColor" stroke-width=".67359"/>
</g>
</svg>
