<?xml version="1.0" encoding="UTF-8"?>
<svg version="1.1" viewBox="0 0 270.68 74.699" xmlns="http://www.w3.org/2000/svg">
<g transform="translate(-36)">
<path d="m100.39 69.141c-1.5934-0.36573-2.5942-0.78801-4.7051-1.9854l-1.5408-0.87399-0.92302 0.94049c-1.4135 1.4402-2.0965 1.6858-4.1705 1.4992-4.8879-0.4396-4.6794-0.39357-5.922-1.3072-1.9481-1.4323-2.7792-2.2441-3.6829-3.5975l-0.86493-1.2952 2e-3 -3.2626c2e-3 -3.2162 0.011-3.2783 0.63735-4.3703 0.8619-1.5028 2.5336-3.1746 3.7104-3.7107 0.5336-0.24308 1.7374-0.65179 2.6751-0.90824 0.93768-0.25645 1.8667-0.5128 2.0644-0.56966 0.29603-0.08513 0.33931-0.29961 0.24506-1.2145-0.23173-2.2496 1.565-7.4328 3.4815-10.044 0.88187-1.2013 2.4297-2.1797 4.9669-3.1396 1.3589-0.51406 1.7338-0.56269 3.7721-0.48918 1.9237 0.06938 2.427 0.16638 3.3547 0.64659 1.008 0.52179 2.3462 1.7635 2.8276 2.6237 0.2152 0.38455 0.55845 0.26735 3.9485-1.3483 1.0707-0.51027 1.4256-0.5642 3.6643-0.55691 2.0568 0.0067 2.6519 0.08632 3.4956 0.46764 1.2465 0.56338 3.0351 2.2028 3.7684 3.4541 0.66889 1.1414 1.3579 3.2952 1.3579 4.2446v0.70387l2.1557 0.11879c2.5698 0.1416 3.5188 0.59001 5.0102 2.3675 1.7875 2.1302 2.527 3.8476 2.5314 5.8784 4e-3 1.4286-0.51211 2.3366-1.9856 3.4992-0.93236 0.7357-1.4972 1.0019-2.5472 1.2002-1.1989 0.22647-1.4086 0.34457-1.8829 1.0608-1.3233 1.9981-4.9702 3.1817-9.8033 3.1817h-2.7191l-0.60674 0.91608c-1.1653 1.7594-4.0409 4.4056-5.6901 5.2361-1.3372 0.67339-1.7897 0.78798-3.4026 0.86158-1.1576 0.05283-2.3749-0.03321-3.2225-0.22777zm4.3922-4.7295c1.4028-0.58613 3.0665-2.2718 4.3112-4.3681 0.64931-1.0935 1.3971-2.1096 1.6618-2.2579 0.3429-0.19213 1.5034-0.25424 4.0378-0.2161 2.333 0.03512 3.9623-0.04215 4.736-0.2246 1.1426-0.26946 1.1849-0.30562 1.3536-1.159 0.27748-1.4031 0.85054-1.7688 3.5282-2.2514 2.7592-0.49725 3.0995-0.59275 3.0995-0.86969 0-0.42869-1.0555-2.2606-1.5894-2.7586-0.52746-0.49197-0.65387-0.51107-2.6105-0.39433-1.8388 0.1097-2.202 0.20424-3.4358 0.89422-1.777 0.99378-2.5233 1.0021-3.4866 0.03867-0.66965-0.66964-0.73287-0.84378-0.73287-2.0186 0-1.4415 0.41372-2.1787 1.5535-2.7681 0.61514-0.3181 0.64748-0.39771 0.55456-1.3648-0.23834-2.4805-1.6237-3.8931-3.8181-3.8931-1.5503 0-4.7129 1.4416-6.522 2.9728-2.1379 1.8096-3.2103 2.0097-4.3991 0.82082-0.70995-0.70994-0.73287-0.7862-0.73287-2.4382 0-1.4467-0.0702-1.7807-0.46311-2.2024-0.42642-0.45771-0.60146-0.4898-2.2094-0.4051-1.521 0.08012-1.9304 0.195-3.1731 0.89039-1.3208 0.73903-1.4845 0.91437-2.2016 2.3583-0.42607 0.85794-0.98792 2.3619-1.2485 3.3422l-0.47387 1.7824 0.49456 1.0559c0.29496 0.62975 0.4456 1.2588 0.37325 1.5586-0.44227 1.8331-0.62037 2.2568-1.1864 2.8228-0.5249 0.5249-0.88809 0.66296-2.1164 0.80452-1.753 0.20203-4.7248 0.98802-5.4301 1.4362-0.73789 0.46883-1.7271 2.154-1.8858 3.2126-0.10958 0.73076-0.033 1.1401 0.36111 1.9291 0.59564 1.1927 1.8862 2.4189 2.7183 2.583 0.329 0.06488 1.2436 0.27083 2.0324 0.45767 0.78884 0.18683 1.6239 0.27949 1.8558 0.2059 0.23185-0.07358 1.0496-0.8833 1.8172-1.7994 2.187-2.6099 4.0512-3.2603 5.358-1.8693 0.3651 0.38863 0.52235 0.82612 0.5504 1.5313 0.0388 0.97662 0.0528 0.99403 1.3016 1.6225 2.431 1.2234 4.5457 1.5533 6.0167 0.93863zm113.88-7.7692c-1.2408-0.64629-2.4653-2.0175-3.3724-3.7763-0.59228-1.1484-0.69573-1.5769-0.69573-2.8821 0-1.4771 0.51614-3.8094 1.0835-4.896 0.41628-0.79732 2.4622-3.4633 3.1756-4.1381 0.61568-0.58231 0.62888-0.63439 0.35512-1.4011-0.37867-1.0605-0.37178-2.2744 0.0236-4.1539 0.41702-1.9824 0.91276-3.0904 2.2958-5.1312 2.3897-3.5262 4.8795-5.9417 6.8971-6.6915 0.39535-0.14692 1.0398-0.40575 1.4321-0.57518 1.0152-0.43847 3.6289-0.77058 4.7773-0.60703 1.3893 0.19787 2.8988 1.0771 4.0936 2.3844l1.0315 1.1286 3.973-2.0234h2.4199c2.2664 0 2.5005 0.04121 3.6908 0.64959 1.4887 0.76094 3.5431 3.0392 3.9424 4.372l0.25223 0.84188 1.1326-0.18708c3.4366-0.56765 6.8548-0.08026 9.0001 1.2833 1.152 0.73223 2.5721 2.5086 3.3317 4.1679 1.6968 3.7063 0.32228 8.0944-3.6515 11.657-2.3883 2.1413-3.3476 2.7671-5.5852 3.6437-1.533 0.60054-2.0722 0.69705-4.4013 0.78782-2.189 0.08532-2.7962 0.03948-3.4636-0.2615-0.80915-0.36488-0.80946-0.36482-1.4748 0.25669-3.0358 2.8359-6.2287 3.7798-12.884 3.8093-3.223 0.01426-4.5068-0.06778-6.0267-0.3851-1.4691-0.30674-1.9522-0.34045-2.0187-0.14087-0.0481 0.14429-0.67548 0.64242-1.3942 1.1069-2.6404 1.7066-5.9599 2.192-7.9394 1.1609zm4.1578-4.5116c1.1762-0.32632 1.2258-0.36968 1.365-1.1936 0.16139-0.9552 1.3164-2.1616 2.0696-2.1616 0.24031 0 1.2797 0.23791 2.3097 0.5287 2.9171 0.82354 5.135 1.0578 8.6516 0.91398 4.0433-0.16542 6.1994-0.72659 7.9714-2.0747l0.52397-0.39863-0.56928-0.67655c-1.6471-1.9575-0.29682-4.6858 2.0968-4.2367 0.86729 0.1627 2.3355 1.3557 2.8189 2.2905 0.42363 0.81921 1.7282 1.2823 3.6122 1.2823 2.5347 0 4.5548-0.9138 7.0568-3.1922 2.6033-2.3706 3.4142-5.1204 2.097-7.1108-0.73848-1.1159-1.3194-1.5014-2.875-1.9076-1.0141-0.26482-1.5656-0.27808-3.1903-0.0767-1.0803 0.13391-2.4248 0.39065-2.9877 0.57052-0.57081 0.1824-1.2952 0.26737-1.6379 0.19211-0.98367-0.21605-1.9538-1.394-2.3279-2.8264-0.66581-2.5497-1.6382-3.5395-3.4773-3.5395-1.3964 0-1.8204 0.16602-4.5722 1.7905-1.9318 1.1404-2.4133 1.335-3.3037 1.335-0.91933 0-1.1253-0.09061-1.7462-0.76806-0.44513-0.48571-0.75555-1.0912-0.84444-1.6471-0.10283-0.64302-0.35333-1.0659-0.93292-1.5748-0.73243-0.64308-0.87516-0.68605-1.8872-0.56816-0.62826 0.07318-1.849 0.50008-2.8642 1.0017-1.5136 0.74777-1.9528 1.0991-3.0388 2.4308-1.8572 2.2774-3.1993 4.7559-3.3864 6.2539l-0.15366 1.2299 1.1026 1.0351c0.92651 0.86986 1.1025 1.1578 1.1025 1.8034 0 1.0441-0.58634 1.7177-2.3491 2.6986-3.2246 1.7944-5.0372 5.7493-3.6579 7.9811 0.44032 0.71246 1.1313 1.1555 1.5883 1.0183 0.11855-0.03558 0.76479-0.21707 1.4361-0.40331zm-28.417-4.7426c-0.87637-0.38746-1.4497-1.2668-1.4497-2.2236 0-0.59228 0.16947-0.90821 0.79438-1.4809 1.0977-1.0059 2.0762-1.0044 3.0855 5e-3 1.0004 1.0004 1.011 1.9959 0.0324 3.0348-0.83433 0.88571-1.535 1.0749-2.4626 0.66475zm-22.811-0.77547c-0.47421-0.09661-1.2228-0.32848-1.6636-0.51526s-1.0779-0.3396-1.4158-0.3396c-0.91668 0-2.7541-0.58756-4.5726-1.4622-1.9946-0.95938-4.7092-3.5801-5.745-5.5463-0.90017-1.7088-1.9753-4.7911-2.355-6.7517-0.6317-3.2616-0.22179-6.8448 1.1336-9.9097 0.69053-1.5614 3.0057-3.8147 4.982-4.8488 2.4702-1.2925 4.3349-1.755 7.0996-1.7608l2.4208-0.0051 0.92019 0.91925c0.81489 0.81405 0.9202 1.032 0.9202 1.9043 0 0.85886-0.0924 1.0587-0.72096 1.5596-2.1377 1.7034-3.7898 4.2968-4.3736 6.8656-0.32386 1.4249 0.0411 3.8626 0.75847 5.0655 1.5602 2.6163 5.4649 3.534 9.4251 2.2151 1.6029-0.5338 1.9395-0.74821 3.3367-2.1251 2.4643-2.4285 3.0405-2.8247 4.1087-2.8247 1.3018 0 2.1159 0.8141 2.1007 2.1008-0.0188 1.5896-0.71739 4.8904-1.2575 5.9416-1.0232 1.9913-2.4683 3.6897-4.2121 4.9504-4.1521 3.0016-4.8202 3.4275-6.4073 4.0846-1.7331 0.71748-2.7774 0.8299-4.4825 0.48252zm-37.974-10.864c-0.87636-0.38746-1.4497-1.2668-1.4497-2.2236 0-0.59228 0.16946-0.90821 0.79436-1.4809 1.0977-1.0059 2.0762-1.0044 3.0855 5e-3 1.0004 1.0004 1.011 1.9959 0.0324 3.0348-0.83432 0.88571-1.535 1.0749-2.4625 0.66476zm74.828-13.96c-0.69704-0.63879-0.80807-0.86972-0.80807-1.6808 0-0.81103 0.11103-1.042 0.80807-1.6808 0.71575-0.65593 0.90757-0.72719 1.6789-0.62374 1.3103 0.17575 1.9906 0.96328 1.9906 2.3045s-0.68025 2.1287-1.9906 2.3045c-0.77133 0.10346-0.96315 0.0322-1.6789-0.62374z" fill="currentColor" stroke-width=".67359"/>
</g>
</svg>
