<?xml version="1.0" encoding="UTF-8"?>
<svg version="1.1" viewBox="0 0 800 400" xml:space="preserve" xmlns="http://www.w3.org/2000/svg"><g transform="translate(0 16.992)" stroke-linecap="round" stroke-width="2"><path d="m137.48 146.59h69.83m60.486 0h28.393m57.233 0h28.713m61.362 0h258.66" fill="currentColor" stroke="currentColor" stroke-width="2" style="paint-order:fill markers stroke"/><path d="m137.48 172.22h80.605m60.489 0h17.615m57.233 0h18.687m60.044 0h270" fill="currentColor" stroke="currentColor" stroke-width="2" style="paint-order:fill markers stroke"/><path d="m702.15 172.22 80.262 36.747" fill="currentColor" stroke="currentColor" stroke-width="2" style="paint-order:fill markers stroke"/><path d="m702.15 146.59 80.262 36.747" fill="currentColor" stroke="currentColor" stroke-width="2" style="paint-order:fill markers stroke"/><path d="m702.15 146.59v25.629" fill="currentColor" stroke="currentColor" stroke-width="2" style="paint-order:fill markers stroke"/><path d="m782.42 183.34v25.629" fill="currentColor" stroke="currentColor" stroke-width="2" style="paint-order:fill markers stroke"/><g transform="matrix(1.7532 0 0 1.7532 -516.06 -137.83)" fill="currentColor" stroke="currentColor" stroke-width="1.1408"><path d="m427.55 169.55 5.9709 14.025" style="paint-order:fill markers stroke"/><path d="m431.03 169.55 5.9709 14.025" style="paint-order:fill markers stroke"/><path d="m433.52 183.57h3.4855" style="paint-order:fill markers stroke"/><path d="m427.55 169.55h3.4855" style="paint-order:fill markers stroke"/><path d="m437 183.57 15.821-6.7185" style="paint-order:fill markers stroke"/><path d="m431.03 169.55 16.073-7.3123" style="paint-order:fill markers stroke"/><path d="m446.78 162.53 5.9709 14.025" style="paint-order:fill markers stroke"/><path d="m412.6 162.53 5.9709 14.025" style="paint-order:fill markers stroke"/><path d="m427.55 169.55-14.942-7.0124" style="paint-order:fill markers stroke"/><path d="m433.52 183.57-14.767-6.7185" style="paint-order:fill markers stroke"/><path d="m427.55 169.55 5.9709 14.025" style="paint-order:fill markers stroke"/><path d="m431.03 169.55 5.9709 14.025" style="paint-order:fill markers stroke"/><path d="m433.52 183.57h3.4855" style="paint-order:fill markers stroke"/><path d="m427.55 169.55h3.4855" style="paint-order:fill markers stroke"/><path d="m437 183.57 15.821-6.7185" style="paint-order:fill markers stroke"/><path d="m431.03 169.55 16.073-7.3123" style="paint-order:fill markers stroke"/><path d="m427.55 169.55-14.942-7.0124" style="paint-order:fill markers stroke"/><path d="m433.52 183.57-14.767-6.7185" style="paint-order:fill markers stroke"/></g><g transform="matrix(-1.7532 0 0 1.7532 1166 -137.83)" fill="currentColor" stroke="currentColor" stroke-width="1.1408"><path d="m427.55 169.55 5.9709 14.025" style="paint-order:fill markers stroke"/><path d="m431.03 169.55 5.9709 14.025" style="paint-order:fill markers stroke"/><path d="m433.52 183.57h3.4855" style="paint-order:fill markers stroke"/><path d="m427.55 169.55h3.4855" style="paint-order:fill markers stroke"/><path d="m437 183.57 15.821-6.7185" style="paint-order:fill markers stroke"/><path d="m431.03 169.55 16.073-7.3123" style="paint-order:fill markers stroke"/><path d="m446.78 162.53 5.9709 14.025" style="paint-order:fill markers stroke"/><path d="m412.6 162.53 5.9709 14.025" style="paint-order:fill markers stroke"/><path d="m427.55 169.55-14.942-7.0124" style="paint-order:fill markers stroke"/><path d="m433.52 183.57-14.767-6.7185" style="paint-order:fill markers stroke"/><path d="m427.55 169.55 5.9709 14.025" style="paint-order:fill markers stroke"/><path d="m431.03 169.55 5.9709 14.025" style="paint-order:fill markers stroke"/><path d="m433.52 183.57h3.4855" style="paint-order:fill markers stroke"/><path d="m427.55 169.55h3.4855" style="paint-order:fill markers stroke"/><path d="m437 183.57 15.821-6.7185" style="paint-order:fill markers stroke"/><path d="m431.03 169.55 16.073-7.3123" style="paint-order:fill markers stroke"/><path d="m427.55 169.55-14.942-7.0124" style="paint-order:fill markers stroke"/><path d="m433.52 183.57-14.767-6.7185" style="paint-order:fill markers stroke"/></g><path d="m782.42 208.97v11.407l-26.396 21.218h-618.54" fill="none" stroke="currentColor" stroke-width="2" style="paint-order:fill markers stroke"/><path d="m137.48 172.22-0.87659-55.986c-3.9878-6.912-11.617-10.322-22.889-10.231-15.722 4.6223-35.193 10.945-47.745 11.747-12.551 0.80153-25.552-8.0049-26.335-10.042v-11.178c-13.767-31.843-43.002-31.084-68.895-32.496" fill="none" stroke="currentColor" stroke-width="2" style="paint-order:fill markers stroke"/><path d="m137.48 172.22-0.87659-17.416c-3.9878-6.912-11.617-10.322-22.889-10.231-15.722 4.6223-35.193 10.945-47.745 11.747-12.551 0.80151-25.552-8.0049-26.335-10.042v-11.178c-13.767-31.843-43.002-31.084-68.895-32.496" fill="none" stroke="currentColor" stroke-width="2" style="paint-order:fill markers stroke"/><path d="m39.636 107.71v27.392" fill="none" stroke="currentColor" stroke-width="2" style="paint-order:fill markers stroke"/><path d="m296.19 146.59v25.629" fill="currentColor" stroke="currentColor" stroke-width="2" style="paint-order:fill markers stroke"/><path d="m353.42 146.59v25.629" fill="currentColor" stroke="currentColor" stroke-width="2" style="paint-order:fill markers stroke"/><path d="m353.42 172.22-24.736 11.726" fill="currentColor" stroke="currentColor" stroke-width="2" style="paint-order:fill markers stroke"/><path d="m353.42 146.59-24.736 11.726" fill="currentColor" stroke="currentColor" stroke-width="2" style="paint-order:fill markers stroke"/><path d="m328.69 158.32v25.629" fill="currentColor" stroke="currentColor" stroke-width="2" style="paint-order:fill markers stroke"/><path d="m296.19 172.22 24.736 11.726" fill="currentColor" stroke="currentColor" stroke-width="2" style="paint-order:fill markers stroke"/><path d="m296.19 146.59 24.736 11.726" fill="currentColor" stroke="currentColor" stroke-width="2" style="paint-order:fill markers stroke"/><path d="m320.93 158.32v25.629" fill="currentColor" stroke="currentColor" stroke-width="2" style="paint-order:fill markers stroke"/><path d="m320.93 158.32h7.761" fill="currentColor" stroke="currentColor" stroke-width="2" style="paint-order:fill markers stroke"/><path d="m320.93 183.95h7.761" fill="currentColor" stroke="currentColor" stroke-width="2" style="paint-order:fill markers stroke"/><path d="m137.48 241.59v9.6955s-6.3281 10.435-23.428 10.26c-17.1-0.17496-28.143-12.976-46.428-13.082-18.284-0.10549-27.959 9.619-27.959 9.619 0.17899 33.91-33.113 44.005-65.808 43.891" fill="none" stroke="currentColor" stroke-width="2" style="paint-order:fill markers stroke"/><path d="m225.32 128.94v-40.816h5.2048v36.214h18.901v4.6021zm99.643 0.54787q-5.2322 0-9.3412-2.5202-4.0816-2.5476-6.4374-7.2319-2.3284-4.7117-2.3284-11.177 0-6.4922 2.3284-11.177 2.3558-4.7117 6.4374-7.2593 4.109-2.5476 9.3412-2.5476 4.1364 0 7.588 1.6162 3.479 1.5888 5.8074 4.5747 2.3558 2.9859 3.0681 7.2045h-5.2047q-0.57527-2.7941-2.2463-4.7117-1.6436-1.9175-3.9994-2.8763-2.3558-0.98616-5.013-0.98616-3.6707 0-6.6292 1.8628t-4.6843 5.4787q-1.7258 3.5885-1.7258 8.8207 0 5.2048 1.7258 8.8207 1.7532 3.5885 4.7117 5.4513 2.9585 1.8354 6.6018 1.8354 2.6846 0 5.013-0.98616 2.3558-0.98616 3.9994-2.9037 1.671-1.9175 2.2463-4.6843h5.2047q-0.71222 4.1364-3.0407 7.1497-2.301 3.0133-5.78 4.6295-3.4516 1.6162-7.6428 1.6162zm75.866-0.54787v-40.816h13.971q4.7664 0 7.8345 1.6436 3.0955 1.6162 4.5747 4.4651 1.5066 2.8489 1.5066 6.4922 0 4.0542-1.8628 7.0675-1.8354 3.0133-5.6978 4.3556l9.1494 16.792h-6.0266l-8.492-15.861q-0.46568 0.0274-0.95877 0.0274h-8.7933v15.833zm5.2048-20.463h8.5467q4.8212 0 6.8758-2.0819 2.0819-2.0819 2.0819-5.6704 0-3.6433-2.0819-5.8348-2.0545-2.1915-6.9305-2.1915h-8.492z" fill="currentColor" style="paint-order:fill markers stroke" aria-label="L C R"/></g></svg>
