<?xml version="1.0" encoding="UTF-8"?>
<svg version="1.1" viewBox="0 0 800 400" xml:space="preserve" xmlns="http://www.w3.org/2000/svg"><g transform="translate(0 45.655)"><g><path d="m214.18 95.305 25.133 27.321h6.8674l11.566-12.573" fill="none" stroke="currentColor" stroke-linecap="round" stroke-width="2" style="paint-order:fill markers stroke"/><g transform="translate(30)" fill="none" stroke="currentColor" stroke-linecap="round" stroke-width="2"><path d="m246.18 122.63 23.566-25.618" style="paint-order:fill markers stroke"/><path d="m239.31 122.63-11.566-12.573" style="paint-order:fill markers stroke"/><path d="m239.31 122.63h6.8674" style="paint-order:fill markers stroke"/></g><g transform="translate(84)"><g fill="none" stroke="currentColor" stroke-linecap="round" stroke-width="2"><path d="m246.18 122.63 25.133-27.321" style="paint-order:fill markers stroke"/><path d="m239.31 122.63-23.566-25.618" style="paint-order:fill markers stroke"/><path d="m239.31 122.63h6.8674" style="paint-order:fill markers stroke"/></g></g><g transform="translate(168)"><g transform="translate(30)" fill="none" stroke="currentColor" stroke-linecap="round" stroke-width="2"><path d="m246.18 122.63 23.566-25.618" style="paint-order:fill markers stroke"/><path d="m239.31 122.63-25.133-27.321" style="paint-order:fill markers stroke"/><path d="m239.31 122.63h6.8674" style="paint-order:fill markers stroke"/></g></g><g transform="translate(252)"><g fill="none" stroke="currentColor" stroke-linecap="round" stroke-width="2"><path d="m246.18 122.63 25.133-27.321" style="paint-order:fill markers stroke"/><path d="m239.31 122.63-23.566-25.618" style="paint-order:fill markers stroke"/><path d="m239.31 122.63h6.8674" style="paint-order:fill markers stroke"/></g></g><g transform="translate(336)"><g transform="translate(30)" fill="none" stroke="currentColor" stroke-linecap="round" stroke-width="2"><path d="m246.18 122.63 25.133-27.321" style="paint-order:fill markers stroke"/><path d="m239.31 122.63-25.133-27.321" style="paint-order:fill markers stroke"/><path d="m239.31 122.63h6.8674" style="paint-order:fill markers stroke"/></g></g><g transform="translate(420)"><g transform="translate(30)" fill="none" stroke="currentColor" stroke-linecap="round" stroke-width="2"><path d="m246.18 122.63 15.735-17.105" style="paint-order:fill markers stroke"/><path d="m239.31 122.63-25.133-27.321" style="paint-order:fill markers stroke"/><path d="m239.31 122.63h6.8674" style="paint-order:fill markers stroke"/></g></g><path d="m257.74 95.305v149.21" fill="none" stroke="currentColor" stroke-linecap="round" stroke-width="2" style="paint-order:fill markers stroke"/><path d="m341.74 95.305v149.21" fill="none" stroke="currentColor" stroke-linecap="round" stroke-width="2" style="paint-order:fill markers stroke"/><path d="m509.74 95.305v149.21" fill="none" stroke="currentColor" stroke-linecap="round" stroke-width="2" style="paint-order:fill markers stroke"/><path d="m425.74 95.305v149.21" fill="none" stroke="currentColor" stroke-linecap="round" stroke-width="2" style="paint-order:fill markers stroke"/><path d="m593.74 95.305v149.21" fill="none" stroke="currentColor" stroke-linecap="round" stroke-width="2" style="paint-order:fill markers stroke"/><path d="m677.74 95.305v149.21" fill="none" stroke="currentColor" stroke-linecap="round" stroke-width="2" style="paint-order:fill markers stroke"/><path d="m276.6 210.94v23.281h-2.9219v-20.531h-0.15625l-5.625 4.1719v-3.1875l5.0625-3.7344z" fill="currentColor" stroke-linecap="round" stroke-width="2" style="paint-order:fill markers stroke" aria-label="1"/><path d="m352.8 234.22v-2.1406l7.7344-8.3906q1.2969-1.4062 2.1562-2.4688 0.85938-1.0625 1.2969-2.0156 0.4375-0.96875 0.4375-2.0469 0-1.8281-1.2656-2.8906-1.25-1.0625-3.1094-1.0625-1.9844 0-3.1719 1.1875-1.1719 1.1875-1.1719 3.1562h-2.8438q0-2.0625 0.95312-3.625 0.95313-1.5625 2.5938-2.4219 1.6406-0.875 3.7188-0.875 2.0781 0 3.6719 0.875 1.6094 0.85938 2.5156 2.3281 0.92188 1.4688 0.92188 3.2969 0 1.2656-0.45313 2.4688-0.45312 1.1875-1.5938 2.7031-1.1406 1.5156-3.2031 3.7031l-5.0938 5.4219v0.1875h10.734v2.6094z" fill="currentColor" stroke-linecap="round" stroke-width="2" style="paint-order:fill markers stroke" aria-label="2"/><path d="m444.31 234.54q-2.2812 0-4.0469-0.78125-1.7656-0.78125-2.8125-2.1719-1.0312-1.3906-1.1094-3.2344h3q0.125 1.6562 1.5312 2.625 1.4062 0.95313 3.3906 0.95313 2.1875 0 3.6094-1.125 1.4375-1.125 1.4375-2.9375 0-1.8906-1.4062-3.0781-1.4062-1.2031-4-1.2031h-1.8906v-2.5781h1.8906q2.0469 0 3.3125-1.0781 1.2812-1.0938 1.2812-2.8906 0-1.7344-1.125-2.7812-1.125-1.0469-3.0312-1.0469-1.1875 0-2.2344 0.4375-1.0312 0.42187-1.7031 1.2188-0.65625 0.79687-0.70312 1.9375h-2.8594q0.0625-1.8281 1.0938-3.2188 1.0312-1.3906 2.7188-2.1719 1.7031-0.78125 3.75-0.78125 2.1719 0 3.7344 0.875 1.5781 0.875 2.4219 2.2969 0.84375 1.4219 0.84375 3.0781 0 1.9688-1.0469 3.3438-1.0312 1.375-2.8125 1.9062v0.1875q2.2344 0.35938 3.4688 1.875 1.2344 1.5 1.2344 3.7031 0 1.9062-1.0312 3.4062t-2.8281 2.375q-1.7969 0.85937-4.0781 0.85937z" fill="currentColor" stroke-linecap="round" stroke-width="2" style="paint-order:fill markers stroke" aria-label="3"/><path d="m520.27 229.49v-2.4219l10.188-16.125h3.6094v15.938h3.1562v2.6094h-3.1562v4.7344h-2.8438v-4.7344zm10.969-2.6094v-12.219h-0.1875l-7.6094 12.031v0.1875z" fill="currentColor" stroke-linecap="round" stroke-width="2" style="paint-order:fill markers stroke" aria-label="4"/><path d="m611.71 234.54q-2.0469 0-3.6719-0.79687-1.625-0.8125-2.5938-2.2031-0.96875-1.4062-1.0469-3.1875h2.875q0.14062 1.5625 1.4062 2.5781 1.2812 1 3.0312 1 1.4062 0 2.5-0.65625 1.1094-0.65625 1.7344-1.8125t0.625-2.625q0-1.5-0.65625-2.6875t-1.7969-1.8594q-1.125-0.6875-2.5938-0.6875-1.0781 0-2.1875 0.34375-1.1094 0.34375-1.7969 0.875l-2.7812-0.34375 1.375-11.531h12.25v2.6094h-9.75l-0.79687 6.7969h0.125q0.71875-0.59375 1.8125-0.96875 1.0938-0.39062 2.2969-0.39062 2.1406 0 3.8125 1.0156 1.6719 1 2.625 2.7656 0.96875 1.7656 0.96875 4.0156 0 2.2344-1.0156 3.9844-1 1.75-2.75 2.7656-1.75 1-4 1z" fill="currentColor" stroke-linecap="round" stroke-width="2" style="paint-order:fill markers stroke" aria-label="5"/><path d="m696.49 234.54q-1.4531 0-2.9062-0.53125-1.4531-0.53125-2.6562-1.7812-1.1875-1.25-1.9062-3.3906-0.71875-2.1406-0.71875-5.3594 0-6.1406 2.2969-9.4844 2.2969-3.3594 6.25-3.3594 1.9531 0 3.5 0.78125 1.5469 0.78125 2.5312 2.1719 0.98438 1.3906 1.2656 3.2188h-2.9062q-0.39063-1.5156-1.4844-2.5312-1.0938-1.0156-2.9062-1.0156-2.6875 0-4.2188 2.3281-1.5156 2.3125-1.5156 6.5156h0.1875q0.9375-1.4531 2.4219-2.2656 1.5-0.82813 3.3125-0.82813 2 0 3.6562 0.98438 1.6562 0.98437 2.6406 2.7344 1 1.7344 1 3.9844 0 2.1719-0.96875 3.9531-0.96875 1.7656-2.7344 2.8281-1.7656 1.0469-4.1406 1.0469zm0-2.6094q1.4062 0 2.5312-0.70313 1.125-0.70312 1.7812-1.875 0.65625-1.1875 0.65625-2.6406 0-1.4219-0.64063-2.5781-0.625-1.1719-1.7344-1.8594-1.1094-0.6875-2.5156-0.6875t-2.5469 0.71875q-1.1406 0.71875-1.8125 1.9062-0.67188 1.1719-0.67188 2.5312 0 1.375 0.64063 2.5625 0.64062 1.1719 1.7656 1.9062 1.125 0.71875 2.5469 0.71875z" fill="currentColor" stroke-linecap="round" stroke-width="2" style="paint-order:fill markers stroke" aria-label="6"/><path d="m334.7 77.9v-23.281h14.078v2.625h-11.109v7.9688h10.047v2.625h-10.047v10.062z" fill="currentColor" stroke-linecap="round" stroke-width="2" style="paint-order:fill markers stroke" aria-label="F"/><path d="m416.7 77.9 8.4531-23.281h3.4375l8.5625 23.281h-3.125l-2.3281-6.5h-9.5938l-2.25 6.5zm6.3125-9.0938h7.7656l-1.6875-4.7188q-0.42187-1.1719-0.95312-2.8594-0.53125-1.7031-1.2812-4.2344-0.73438 2.5781-1.2812 4.2969-0.54688 1.7188-0.92188 2.7969z" fill="currentColor" stroke-linecap="round" stroke-width="2" style="paint-order:fill markers stroke" aria-label="A"/><path d="m502.7 77.9v-23.281h14.078v2.625h-11.109v7.9688h10.047v2.625h-10.047v10.062z" fill="currentColor" stroke-linecap="round" stroke-width="2" style="paint-order:fill markers stroke" aria-label="F"/><path d="m584.71 77.9 8.4531-23.281h3.4375l8.5625 23.281h-3.125l-2.3281-6.5h-9.5938l-2.25 6.5zm6.3125-9.0938h7.7656l-1.6875-4.7188q-0.42187-1.1719-0.95312-2.8594-0.53125-1.7031-1.2812-4.2344-0.73438 2.5781-1.2812 4.2969-0.54688 1.7188-0.92188 2.7969z" fill="currentColor" stroke-linecap="round" stroke-width="2" style="paint-order:fill markers stroke" aria-label="A"/><path d="m668.71 77.9 8.4531-23.281h3.4375l8.5625 23.281h-3.125l-2.3281-6.5h-9.5938l-2.25 6.5zm6.3125-9.0938h7.7656l-1.6875-4.7188q-0.42187-1.1719-0.95312-2.8594-0.53125-1.7031-1.2812-4.2344-0.73438 2.5781-1.2812 4.2969-0.54688 1.7188-0.92188 2.7969z" fill="currentColor" stroke-linecap="round" stroke-width="2" style="paint-order:fill markers stroke" aria-label="A"/><g fill="currentColor" stroke-linecap="round" stroke-width="2" style="paint-order:fill markers stroke" aria-label="F&amp;A"><path d="m227.18 77.9v-23.281h14.078v2.625h-11.109v7.9688h10.047v2.625h-10.047v10.062z"/><path d="m254.53 78.213q-2.2969 0-3.9688-0.84375-1.6719-0.85938-2.5781-2.2969-0.89063-1.4531-0.89063-3.25 0-1.4844 0.59375-2.5625 0.59375-1.0938 1.625-2.0156 1.0469-0.9375 2.375-1.9219-1.2188-1.4688-1.9688-2.7656-0.73437-1.2969-0.73437-2.8906 0-2.3125 1.5469-3.7812 1.5625-1.4844 4.1562-1.4844 1.75 0 3.0156 0.6875 1.2656 0.67188 1.9531 1.8125 0.6875 1.125 0.6875 2.5156 0 1.6094-0.875 2.8438-0.85937 1.2188-2.2188 2.2344l-1.6875 1.25 4.9844 6.0469q0.45312-0.875 0.70312-1.9219 0.25-1.0625 0.25-2.25h2.7031q0 2.4375-0.60938 3.9688-0.59375 1.5156-1.2656 2.375l3.25 3.9375h-3.3906l-1.6094-1.9375q-1.1562 1.1406-2.8125 1.7031-1.6406 0.54688-3.2344 0.54688zm4.3594-4.2656-5.5-6.5938-0.79688 0.59375q-1.4375 1.0625-2.0312 1.9844-0.57812 0.90625-0.57812 1.9844 0 1.7188 1.2031 2.7812 1.2031 1.0625 3.1406 1.0625 2.5781 0 4.5625-1.8125zm-5.0156-10.234 1.5156-1.125q0.42187-0.3125 0.92187-0.75t0.84375-1.0469q0.35938-0.60938 0.35938-1.4219 0-1.1094-0.75-1.8281-0.73438-0.71875-2-0.71875-1.3281 0-2.1406 0.79688-0.8125 0.78125-0.8125 2.0312 0 1.0469 0.5625 2 0.57813 0.9375 1.5 2.0625z"/><path d="m271.02 77.9 8.4531-23.281h3.4375l8.5625 23.281h-3.125l-2.3281-6.5h-9.5938l-2.25 6.5zm6.3125-9.0938h7.7656l-1.6875-4.7188q-0.42187-1.1719-0.95312-2.8594-0.53125-1.7031-1.2812-4.2344-0.73438 2.5781-1.2812 4.2969-0.54688 1.7188-0.92188 2.7969z"/></g><path d="m138.47 95.305h75.712m141.13 0h56.868m111.13 0h56.867m57.133 0h26.867m47.735 10.216 62.982 69.837c12.824 16.27 12.92 31.871 0.28866 46.801l-21.977 22.112-614.81 0.30548" fill="none" stroke="currentColor" stroke-linecap="round" stroke-width="2" style="paint-order:fill markers stroke"/></g><path d="m138.47 95.305v-37.555s0.58484-28.658-21.975-28.71c-22.56-0.052123-26.903 23.505-48.18 23.43s-26.937-14.301-26.765-24.088c1.1828-67.352-31.877-98.342-105.24-94.712" fill="none" stroke="currentColor" stroke-linecap="round" stroke-width="2" style="paint-order:fill markers stroke"/><path d="m138.47 245.38v5.5551s0.58484 32.658-21.975 32.71c-22.56 0.0521-26.903-27.505-48.18-27.43-21.278 0.0745-26.937 14.301-26.765 24.088 1.1828 67.352-31.877 98.342-105.24 94.712" fill="none" stroke="currentColor" stroke-linecap="round" stroke-width="2" style="paint-order:fill markers stroke"/></g></svg>
